<svg xmlns="http://www.w3.org/2000/svg" xmlns:xlink="http://www.w3.org/1999/xlink" width="480" zoomAndPan="magnify" viewBox="0 0 360 359.999987" height="480" preserveAspectRatio="xMidYMid meet" version="1.0"><defs><g/><clipPath id="595db74a49"><path d="M 10.414062 8.003906 L 298.007812 8.003906 L 298.007812 295.601562 L 10.414062 295.601562 Z M 10.414062 8.003906 " clip-rule="nonzero"/></clipPath><clipPath id="ec42e64f8e"><path d="M 60.398438 32.515625 L 246 32.515625 L 246 256.324219 L 60.398438 256.324219 Z M 60.398438 32.515625 " clip-rule="nonzero"/></clipPath><clipPath id="2dba425d26"><path d="M 77.691406 53.410156 L 228.761719 53.410156 L 228.761719 235.816406 L 77.691406 235.816406 Z M 77.691406 53.410156 " clip-rule="nonzero"/></clipPath><clipPath id="87b0bdf15a"><path d="M 123.417969 92 L 134 92 L 134 114 L 123.417969 114 Z M 123.417969 92 " clip-rule="nonzero"/></clipPath><clipPath id="dff487b83c"><path d="M 123.417969 68.660156 L 184.96875 68.660156 L 184.96875 109.566406 L 123.417969 109.566406 Z M 123.417969 68.660156 " clip-rule="nonzero"/></clipPath><clipPath id="67d9b5187f"><path d="M 155.296875 144 L 172.226562 144 L 172.226562 163.695312 L 155.296875 163.695312 Z M 155.296875 144 " clip-rule="nonzero"/></clipPath><clipPath id="5d544fc711"><path d="M 138 144 L 154.734375 144 L 154.734375 163.695312 L 138 163.695312 Z M 138 144 " clip-rule="nonzero"/></clipPath><clipPath id="d4284bb40e"><path d="M 148 172 L 184 172 L 184 209.878906 L 148 209.878906 Z M 148 172 " clip-rule="nonzero"/></clipPath><clipPath id="4bf58d468f"><path d="M 104.664062 128.1875 L 153 128.1875 L 153 181 L 104.664062 181 Z M 104.664062 128.1875 " clip-rule="nonzero"/></clipPath><clipPath id="4f9f20c02b"><path d="M 155 128.1875 L 204 128.1875 L 204 181 L 155 181 Z M 155 128.1875 " clip-rule="nonzero"/></clipPath><clipPath id="f8cec781a2"><path d="M 124 179 L 154 179 L 154 209.878906 L 124 209.878906 Z M 124 179 " clip-rule="nonzero"/></clipPath><clipPath id="ebe6aa9a29"><path d="M 1.078125 0 L 304.921875 0 L 304.921875 303.839844 L 1.078125 303.839844 Z M 1.078125 0 " clip-rule="nonzero"/></clipPath><clipPath id="dde5071f91"><rect x="0" width="305" y="0" height="304"/></clipPath></defs><g transform="matrix(1, 0, 0, 1, 27, 36)"><g clip-path="url(#dde5071f91)"><g clip-path="url(#595db74a49)"><path fill="#adff42" d="M 298.238281 151.914062 C 298.238281 154.269531 298.179688 156.625 298.0625 158.976562 C 297.949219 161.328125 297.773438 163.675781 297.542969 166.019531 C 297.3125 168.363281 297.023438 170.703125 296.679688 173.03125 C 296.332031 175.363281 295.929688 177.679688 295.472656 179.992188 C 295.011719 182.300781 294.496094 184.597656 293.921875 186.882812 C 293.351562 189.167969 292.722656 191.4375 292.039062 193.691406 C 291.355469 195.945312 290.617188 198.179688 289.824219 200.398438 C 289.03125 202.617188 288.183594 204.8125 287.28125 206.988281 C 286.378906 209.164062 285.425781 211.316406 284.417969 213.445312 C 283.414062 215.574219 282.355469 217.679688 281.242188 219.753906 C 280.132812 221.832031 278.972656 223.878906 277.761719 225.902344 C 276.550781 227.921875 275.292969 229.910156 273.984375 231.867188 C 272.675781 233.828125 271.320312 235.75 269.914062 237.644531 C 268.511719 239.535156 267.0625 241.390625 265.570312 243.210938 C 264.074219 245.03125 262.539062 246.816406 260.957031 248.5625 C 259.375 250.304688 257.75 252.011719 256.085938 253.675781 C 254.421875 255.34375 252.714844 256.964844 250.96875 258.546875 C 249.226562 260.128906 247.441406 261.667969 245.621094 263.160156 C 243.800781 264.65625 241.945312 266.101562 240.054688 267.507812 C 238.160156 268.910156 236.234375 270.265625 234.277344 271.574219 C 232.320312 272.882812 230.332031 274.140625 228.308594 275.351562 C 226.289062 276.5625 224.242188 277.722656 222.164062 278.835938 C 220.085938 279.945312 217.984375 281.003906 215.855469 282.011719 C 213.726562 283.015625 211.574219 283.972656 209.398438 284.871094 C 207.222656 285.773438 205.023438 286.621094 202.808594 287.414062 C 200.589844 288.207031 198.355469 288.945312 196.101562 289.628906 C 193.847656 290.3125 191.578125 290.941406 189.292969 291.515625 C 187.007812 292.085938 184.710938 292.601562 182.402344 293.0625 C 180.089844 293.519531 177.769531 293.925781 175.441406 294.269531 C 173.113281 294.613281 170.773438 294.902344 168.429688 295.132812 C 166.085938 295.363281 163.738281 295.539062 161.386719 295.652344 C 159.035156 295.769531 156.679688 295.828125 154.324219 295.828125 C 151.96875 295.828125 149.617188 295.769531 147.261719 295.652344 C 144.910156 295.539062 142.5625 295.363281 140.21875 295.132812 C 137.875 294.902344 135.539062 294.613281 133.207031 294.269531 C 130.878906 293.925781 128.558594 293.519531 126.25 293.0625 C 123.9375 292.601562 121.640625 292.085938 119.355469 291.515625 C 117.074219 290.941406 114.804688 290.3125 112.550781 289.628906 C 110.296875 288.945312 108.058594 288.207031 105.84375 287.414062 C 103.625 286.621094 101.429688 285.773438 99.253906 284.871094 C 97.074219 283.972656 94.921875 283.015625 92.792969 282.011719 C 90.664062 281.003906 88.5625 279.945312 86.484375 278.835938 C 84.410156 277.722656 82.359375 276.5625 80.339844 275.351562 C 78.320312 274.140625 76.328125 272.882812 74.371094 271.574219 C 72.414062 270.265625 70.488281 268.910156 68.597656 267.507812 C 66.703125 266.101562 64.847656 264.65625 63.027344 263.160156 C 61.207031 261.667969 59.425781 260.128906 57.679688 258.546875 C 55.933594 256.964844 54.230469 255.34375 52.5625 253.675781 C 50.898438 252.011719 49.273438 250.304688 47.691406 248.5625 C 46.113281 246.816406 44.574219 245.03125 43.078125 243.210938 C 41.585938 241.390625 40.136719 239.535156 38.734375 237.644531 C 37.332031 235.75 35.976562 233.828125 34.667969 231.867188 C 33.359375 229.910156 32.097656 227.921875 30.886719 225.902344 C 29.675781 223.878906 28.515625 221.832031 27.40625 219.753906 C 26.296875 217.679688 25.238281 215.574219 24.230469 213.445312 C 23.222656 211.316406 22.269531 209.164062 21.367188 206.988281 C 20.464844 204.8125 19.617188 202.617188 18.824219 200.398438 C 18.03125 198.179688 17.292969 195.945312 16.609375 193.691406 C 15.925781 191.4375 15.296875 189.167969 14.726562 186.882812 C 14.152344 184.597656 13.636719 182.300781 13.179688 179.992188 C 12.71875 177.679688 12.316406 175.363281 11.96875 173.03125 C 11.625 170.703125 11.335938 168.363281 11.105469 166.019531 C 10.875 163.675781 10.703125 161.328125 10.585938 158.976562 C 10.472656 156.625 10.414062 154.269531 10.414062 151.914062 C 10.414062 149.558594 10.472656 147.207031 10.585938 144.855469 C 10.703125 142.5 10.875 140.152344 11.105469 137.808594 C 11.335938 135.464844 11.625 133.128906 11.96875 130.800781 C 12.316406 128.46875 12.71875 126.148438 13.179688 123.839844 C 13.636719 121.53125 14.152344 119.230469 14.726562 116.949219 C 15.296875 114.664062 15.925781 112.394531 16.609375 110.140625 C 17.292969 107.886719 18.03125 105.652344 18.824219 103.433594 C 19.617188 101.214844 20.464844 99.019531 21.367188 96.84375 C 22.269531 94.667969 23.222656 92.515625 24.230469 90.386719 C 25.238281 88.257812 26.296875 86.152344 27.40625 84.074219 C 28.515625 82 29.675781 79.949219 30.886719 77.929688 C 32.097656 75.910156 33.359375 73.921875 34.667969 71.960938 C 35.976562 70.003906 37.332031 68.078125 38.734375 66.1875 C 40.136719 64.296875 41.585938 62.4375 43.078125 60.617188 C 44.574219 58.796875 46.113281 57.015625 47.691406 55.269531 C 49.273438 53.523438 50.898438 51.820312 52.5625 50.15625 C 54.230469 48.488281 55.933594 46.867188 57.679688 45.285156 C 59.425781 43.703125 61.207031 42.164062 63.027344 40.671875 C 64.847656 39.175781 66.703125 37.726562 68.597656 36.324219 C 70.488281 34.921875 72.414062 33.566406 74.371094 32.257812 C 76.328125 30.949219 78.320312 29.6875 80.339844 28.476562 C 82.359375 27.265625 84.410156 26.105469 86.484375 24.996094 C 88.5625 23.886719 90.664062 22.828125 92.792969 21.820312 C 94.921875 20.8125 97.078125 19.859375 99.253906 18.957031 C 101.429688 18.058594 103.625 17.210938 105.84375 16.417969 C 108.058594 15.621094 110.296875 14.882812 112.550781 14.199219 C 114.804688 13.515625 117.074219 12.890625 119.355469 12.316406 C 121.640625 11.746094 123.9375 11.226562 126.25 10.769531 C 128.558594 10.308594 130.878906 9.90625 133.207031 9.5625 C 135.539062 9.214844 137.875 8.925781 140.21875 8.695312 C 142.5625 8.464844 144.910156 8.292969 147.261719 8.175781 C 149.617188 8.0625 151.96875 8.003906 154.324219 8.003906 C 156.679688 8.003906 159.035156 8.0625 161.386719 8.175781 C 163.738281 8.292969 166.085938 8.464844 168.429688 8.695312 C 170.773438 8.925781 173.113281 9.214844 175.441406 9.5625 C 177.769531 9.90625 180.089844 10.308594 182.402344 10.769531 C 184.710938 11.226562 187.007812 11.746094 189.292969 12.316406 C 191.578125 12.890625 193.847656 13.515625 196.101562 14.199219 C 198.355469 14.882812 200.589844 15.621094 202.808594 16.417969 C 205.023438 17.210938 207.222656 18.058594 209.398438 18.957031 C 211.574219 19.859375 213.726562 20.8125 215.855469 21.820312 C 217.984375 22.828125 220.085938 23.886719 222.164062 24.996094 C 224.242188 26.105469 226.289062 27.265625 228.308594 28.476562 C 230.332031 29.6875 232.320312 30.949219 234.277344 32.257812 C 236.234375 33.566406 238.160156 34.921875 240.054688 36.324219 C 241.945312 37.726562 243.800781 39.175781 245.621094 40.671875 C 247.441406 42.164062 249.226562 43.703125 250.96875 45.285156 C 252.714844 46.867188 254.421875 48.488281 256.085938 50.15625 C 257.75 51.820312 259.375 53.523438 260.957031 55.269531 C 262.539062 57.015625 264.074219 58.796875 265.570312 60.617188 C 267.0625 62.4375 268.511719 64.296875 269.914062 66.1875 C 271.320312 68.078125 272.675781 70.003906 273.984375 71.960938 C 275.292969 73.921875 276.550781 75.910156 277.761719 77.929688 C 278.972656 79.949219 280.132812 82 281.242188 84.074219 C 282.355469 86.152344 283.414062 88.257812 284.417969 90.386719 C 285.425781 92.515625 286.378906 94.667969 287.28125 96.84375 C 288.183594 99.019531 289.03125 101.214844 289.824219 103.433594 C 290.617188 105.652344 291.355469 107.886719 292.039062 110.140625 C 292.722656 112.394531 293.351562 114.664062 293.921875 116.949219 C 294.496094 119.230469 295.011719 121.53125 295.472656 123.839844 C 295.929688 126.148438 296.332031 128.46875 296.679688 130.800781 C 297.023438 133.128906 297.3125 135.464844 297.542969 137.808594 C 297.773438 140.152344 297.949219 142.5 298.0625 144.855469 C 298.179688 147.207031 298.238281 149.558594 298.238281 151.914062 Z M 298.238281 151.914062 " fill-opacity="1" fill-rule="nonzero"/></g><g clip-path="url(#ec42e64f8e)"><path fill="#457a00" d="M 153 32.667969 L 60.507812 65.121094 L 60.507812 144.613281 C 60.507812 180.988281 117.992188 246.046875 151.898438 256.164062 L 153 256.492188 L 154.101562 256.164062 C 188.007812 246.046875 245.492188 180.988281 245.492188 144.613281 L 245.492188 65.121094 Z M 237.785156 144.613281 C 237.785156 176.585938 183.554688 238.21875 153 248.433594 C 122.445312 238.21875 68.214844 176.585938 68.214844 144.613281 L 68.214844 70.582031 L 153 40.835938 L 237.785156 70.582031 Z M 237.785156 144.613281 " fill-opacity="1" fill-rule="nonzero"/></g><g clip-path="url(#2dba425d26)"><path fill="#74cc00" d="M 153 53.539062 L 77.785156 79.925781 L 77.785156 144.570312 C 77.785156 174.152344 124.53125 227.058594 152.105469 235.285156 L 153 235.550781 L 153.894531 235.285156 C 181.46875 227.058594 228.214844 174.152344 228.214844 144.570312 L 228.214844 79.925781 Z M 221.949219 144.570312 C 221.949219 170.570312 177.847656 220.691406 153 228.996094 C 128.152344 220.691406 84.050781 170.570312 84.050781 144.570312 L 84.050781 84.367188 L 153 60.179688 L 221.949219 84.367188 Z M 221.949219 144.570312 " fill-opacity="1" fill-rule="nonzero"/></g><path fill="#74cc00" d="M 172.3125 122.257812 C 172.492188 121.546875 173.46875 120.425781 172.941406 119.644531 C 171.351562 117.304688 169.738281 115.003906 167.335938 113.417969 C 165.050781 112.039062 163.109375 111.273438 160.523438 110.644531 C 157.945312 110.078125 155.824219 109.898438 153.183594 110.03125 C 150.503906 110.226562 148.445312 110.671875 145.949219 111.679688 C 143.363281 112.800781 141.597656 114.003906 139.625 116.03125 C 141.214844 113.546875 142.792969 111.945312 145.234375 110.308594 C 147.777344 108.71875 149.949219 107.886719 152.898438 107.363281 C 155.925781 106.910156 158.277344 107.007812 161.253906 107.742188 C 162.460938 108.078125 163.523438 108.457031 164.523438 108.921875 C 168.472656 110.75 170.578125 113.136719 172.332031 116.523438 C 173.644531 119.066406 173.363281 115.992188 173.371094 115.296875 C 173.414062 111.925781 173.871094 107.753906 174.664062 105.863281 C 173.824219 111.230469 174.429688 115.257812 174.222656 120.222656 C 174.210938 120.511719 174.140625 120.699219 174.035156 120.839844 C 173.953125 120.945312 172.871094 121.371094 172.3125 122.257812 " fill-opacity="1" fill-rule="nonzero"/><path fill="#74cc00" d="M 133.382812 107.347656 C 135.429688 111.128906 136.449219 117.449219 135.351562 121.820312 C 135.199219 117.417969 134.527344 112.433594 133.382812 107.347656 " fill-opacity="1" fill-rule="nonzero"/><g clip-path="url(#87b0bdf15a)"><path fill="#74cc00" d="M 123.417969 92.507812 C 125.691406 96.566406 126.71875 99.636719 126.542969 104.257812 C 126.5 105.335938 126.574219 106.152344 127.042969 107.132812 C 127.492188 107.960938 128.015625 108.460938 128.738281 109.050781 C 130.601562 110.519531 132.066406 111.214844 133.488281 113.261719 C 131.683594 111.601562 130.058594 111.242188 127.988281 110.15625 C 126.933594 109.558594 126.222656 109.023438 125.527344 108.019531 C 124.722656 106.746094 124.554688 105.621094 124.625 104.132812 C 125.019531 99.1875 125.230469 97.542969 123.417969 92.507812 " fill-opacity="1" fill-rule="nonzero"/></g><g clip-path="url(#dff487b83c)"><path fill="#74cc00" d="M 128.917969 103.402344 C 128.265625 99.105469 127.003906 96.851562 125.140625 93.085938 C 124.488281 91.699219 123.945312 90.488281 123.6875 88.960938 C 123.480469 87.328125 123.710938 86.210938 124.535156 84.785156 C 126.808594 81.367188 129.265625 80.476562 131.554688 76.355469 C 132.773438 74.101562 134.21875 72.640625 136.351562 71.242188 C 138.589844 69.886719 140.558594 69.210938 143.1875 69.164062 C 146.734375 69.242188 150.148438 69.976562 153.648438 69.792969 C 156.339844 69.542969 158.832031 68.882812 161.589844 68.683594 C 163.183594 68.609375 164.417969 68.683594 165.953125 69.164062 C 167.640625 69.757812 168.691406 70.527344 169.8125 71.921875 C 172.726562 75.761719 175.761719 79.96875 179.753906 82.742188 C 181.703125 84 183.175781 85.300781 184.359375 87.324219 C 184.925781 88.390625 185.199219 89.269531 185.226562 90.484375 C 185.191406 91.820312 184.851562 92.75 184.121094 93.863281 C 182.390625 96.324219 180.417969 98.507812 178.730469 100.960938 C 176.984375 103.53125 176.113281 106.175781 176.046875 109.292969 C 175.964844 105.8125 176.492188 103.640625 178.128906 100.589844 C 179.613281 98.007812 181.421875 95.679688 182.980469 93.121094 C 183.476562 92.246094 183.703125 91.535156 183.652344 90.523438 C 183.570312 89.617188 183.304688 88.976562 182.832031 88.210938 C 181.726562 86.582031 180.363281 85.53125 178.667969 84.582031 C 174.175781 81.871094 170.863281 77.675781 167.585938 73.664062 C 166.828125 72.777344 166.160156 72.3125 165.050781 71.949219 C 163.90625 71.625 162.941406 71.605469 161.761719 71.671875 C 159.070312 71.894531 156.550781 72.566406 153.855469 72.789062 C 150.058594 72.945312 146.851562 72.132812 143.132812 71.921875 C 141.054688 71.882812 139.453125 72.390625 137.636719 73.375 C 135.828125 74.441406 134.554688 75.589844 133.441406 77.382812 C 130.652344 81.90625 128.351562 82.238281 125.738281 85.566406 C 125.003906 86.664062 124.773438 87.511719 124.839844 88.828125 C 124.964844 90.242188 125.410156 91.433594 125.921875 92.742188 C 127.460938 96.6875 128.558594 99.03125 128.917969 103.402344 " fill-opacity="1" fill-rule="nonzero"/></g><path fill="#74cc00" d="M 173.089844 106.398438 C 172.285156 104.90625 171.367188 103.660156 170.277344 102.367188 C 167.03125 98.574219 165.148438 98.1875 160.628906 96.5625 C 157.558594 95.523438 155.582031 95.246094 152.425781 95.984375 C 149.496094 96.769531 146.5 98.105469 143.558594 99.066406 C 142.125 99.535156 141.074219 100.027344 139.9375 101.027344 C 139.050781 101.894531 138.578125 102.660156 138.050781 103.773438 C 137.097656 105.976562 136.738281 107.984375 135.136719 109.859375 C 136.339844 107.78125 136.375 105.664062 136.964844 103.375 C 137.347656 101.976562 137.769531 101.007812 138.65625 99.851562 C 139.835938 98.378906 141.039062 97.597656 142.75 96.84375 C 145.699219 95.550781 148.605469 93.9375 151.6875 93.0625 C 155.484375 92.148438 158.03125 92.671875 161.589844 94.199219 C 166.308594 96.371094 168.128906 97.359375 170.980469 101.871094 C 171.828125 103.375 172.546875 104.753906 173.089844 106.398438 " fill-opacity="1" fill-rule="nonzero"/><path fill="#74cc00" d="M 146.199219 77.191406 C 146.757812 78.351562 147.425781 78.832031 148.332031 79.671875 C 149.464844 80.730469 150.007812 81.523438 150.347656 83.0625 C 150.753906 85.53125 149.953125 88.472656 149.644531 91 C 149.601562 88.539062 149.902344 85.578125 149.535156 83.210938 C 149.253906 81.824219 148.832031 81.117188 147.960938 80.019531 C 147.15625 79.046875 146.578125 78.445312 146.199219 77.191406 " fill-opacity="1" fill-rule="nonzero"/><path fill="#74cc00" d="M 156.378906 89.695312 C 156.507812 86.957031 157.222656 84.9375 158.164062 82.421875 C 159.074219 80.003906 159.855469 78.183594 159.804688 75.527344 C 160.324219 78.199219 159.847656 80.210938 158.941406 82.714844 C 158.011719 85.15625 156.964844 87.082031 156.378906 89.695312 " fill-opacity="1" fill-rule="nonzero"/><path fill="#74cc00" d="M 181.980469 89.246094 C 181.613281 90.53125 181.105469 91.292969 180.226562 92.273438 C 179.417969 93.148438 178.542969 93.925781 177.730469 94.800781 C 175.996094 96.765625 174.445312 99.054688 172.855469 101.152344 C 173.992188 98.867188 175.402344 96.128906 177.128906 94.234375 C 178.007812 93.335938 178.902344 92.6875 179.859375 91.894531 C 180.785156 91.070312 181.476562 90.417969 181.980469 89.246094 " fill-opacity="1" fill-rule="nonzero"/><path fill="#74cc00" d="M 145.515625 94.578125 C 145.613281 83.949219 141.125 81.972656 141.5625 73.8125 C 142.179688 82.800781 146.625 82.121094 145.515625 94.578125 " fill-opacity="1" fill-rule="nonzero"/><path fill="#74cc00" d="M 131.417969 90.625 C 134.722656 94.273438 135.738281 94.808594 136.710938 99.761719 C 135.152344 95.75 133.644531 94.15625 131.417969 90.625 " fill-opacity="1" fill-rule="nonzero"/><path fill="#74cc00" d="M 175.582031 84.855469 C 175.058594 85.261719 174.800781 85.722656 174.550781 86.324219 C 174.289062 87.011719 174.140625 87.65625 174.003906 88.375 C 173.800781 89.429688 173.617188 91.097656 173.234375 92.046875 C 172.074219 94.40625 170.777344 94.957031 168.722656 96.300781 C 170.296875 94.515625 171.402344 94.15625 172.480469 91.722656 C 172.835938 90.6875 173.054688 89.34375 173.382812 88.21875 C 173.621094 87.480469 173.863281 86.851562 174.261719 86.179688 C 174.613281 85.601562 174.964844 85.167969 175.582031 84.855469 " fill-opacity="1" fill-rule="nonzero"/><g clip-path="url(#67d9b5187f)"><path fill="#74cc00" d="M 155.582031 164.148438 C 155.511719 161.425781 155.523438 157.871094 156.214844 156.945312 C 158.015625 154.546875 162.667969 152.625 164.527344 151.421875 C 167.304688 149.621094 169.316406 147.8125 170.183594 144.738281 C 170.871094 142.304688 172.207031 147.863281 172.207031 148.699219 C 172.207031 150.769531 172.035156 151.34375 171.054688 152.734375 C 167.328125 158.027344 158.023438 160 155.582031 164.148438 " fill-opacity="1" fill-rule="evenodd"/></g><g clip-path="url(#5d544fc711)"><path fill="#74cc00" d="M 154.625 164.148438 C 154.695312 161.425781 154.683594 157.871094 153.992188 156.945312 C 152.191406 154.546875 147.539062 152.625 145.679688 151.421875 C 142.902344 149.621094 140.890625 147.8125 140.023438 144.738281 C 139.332031 142.304688 138 147.863281 138 148.699219 C 138 150.769531 138.171875 151.34375 139.152344 152.734375 C 142.878906 158.027344 152.183594 160 154.625 164.148438 " fill-opacity="1" fill-rule="evenodd"/></g><path fill="#74cc00" d="M 157.363281 122.585938 C 157.382812 121.96875 157.488281 121.128906 158.03125 120.339844 C 159.175781 118.667969 163.414062 118.394531 165.210938 119.839844 C 165.683594 120.214844 167.085938 122.214844 166.628906 122.496094 C 166.234375 122.738281 165.445312 122.121094 164.910156 121.683594 C 164.128906 121.046875 163.023438 120.964844 162.066406 120.917969 C 161.382812 120.886719 160.613281 120.980469 160.027344 121.09375 C 159.21875 121.253906 158.164062 122 157.796875 122.71875 C 157.621094 123.0625 157.351562 122.976562 157.363281 122.585938 " fill-opacity="1" fill-rule="evenodd"/><path fill="#74cc00" d="M 151.28125 122.585938 C 151.261719 121.96875 151.152344 121.128906 150.613281 120.339844 C 149.46875 118.667969 145.226562 118.394531 143.433594 119.839844 C 142.960938 120.214844 141.558594 122.214844 142.011719 122.496094 C 142.410156 122.738281 143.195312 122.121094 143.734375 121.683594 C 144.515625 121.046875 145.617188 120.964844 146.578125 120.917969 C 147.261719 120.886719 148.03125 120.980469 148.613281 121.09375 C 149.425781 121.253906 150.480469 122 150.847656 122.71875 C 151.023438 123.0625 151.292969 122.976562 151.28125 122.585938 " fill-opacity="1" fill-rule="evenodd"/><path fill="#74cc00" d="M 133.691406 132.367188 C 132.726562 134.835938 132.300781 138.410156 135.496094 139.230469 C 137.195312 139.667969 139.691406 138.875 142.734375 136.339844 C 145.941406 133.671875 149.390625 130.695312 152.347656 131.960938 C 153.050781 132.261719 153.75 132.757812 154.304688 133.371094 C 154.859375 132.757812 155.558594 132.261719 156.261719 131.960938 C 159.21875 130.695312 162.664062 133.671875 165.875 136.339844 C 168.917969 138.875 171.414062 139.667969 173.113281 139.230469 C 176.308594 138.410156 175.882812 134.835938 174.917969 132.367188 C 178.054688 136.808594 176.988281 140.304688 172.5 141.824219 C 166.703125 143.789062 156.875 142.71875 154.304688 138.894531 C 151.734375 142.71875 141.90625 143.789062 136.113281 141.824219 C 131.621094 140.304688 130.554688 136.808594 133.691406 132.367188 " fill-opacity="1" fill-rule="evenodd"/><g clip-path="url(#d4284bb40e)"><path fill="#74cc00" d="M 180.027344 197.894531 C 180.027344 197.894531 161.082031 179.1875 154.6875 173.128906 C 154.488281 172.929688 154.152344 172.929688 153.953125 173.148438 C 153 174.101562 150.398438 176.703125 149.207031 177.894531 C 148.789062 178.3125 148.769531 178.949219 149.128906 179.40625 C 150.4375 181.035156 151.6875 182.703125 152.839844 184.46875 C 152.839844 184.46875 157.566406 191.082031 163.128906 195.988281 C 165.074219 197.695312 167.316406 199.304688 168.828125 201.449219 C 169.542969 202.460938 169.9375 203.632812 170.117188 204.863281 C 170.238281 205.679688 169.957031 207.328125 170.652344 207.882812 C 172.042969 208.976562 174.964844 209.351562 176.671875 209.472656 C 178.777344 209.628906 180.902344 209.113281 182.410156 207.523438 C 186.460938 203.253906 180.027344 197.894531 180.027344 197.894531 Z M 156.671875 180 C 156.136719 180.558594 155.261719 180.558594 154.726562 180.019531 C 154.191406 179.484375 154.171875 178.609375 154.707031 178.074219 C 155.242188 177.539062 156.117188 177.519531 156.652344 178.054688 C 157.191406 178.570312 157.210938 179.445312 156.671875 180 Z M 168.289062 191.28125 C 167.753906 191.835938 166.878906 191.835938 166.34375 191.300781 C 165.789062 190.765625 165.789062 189.890625 166.324219 189.355469 C 166.859375 188.796875 167.734375 188.796875 168.269531 189.335938 C 168.808594 189.871094 168.828125 190.746094 168.289062 191.28125 Z M 179.90625 202.582031 C 179.371094 203.136719 178.5 203.136719 177.960938 202.601562 C 177.40625 202.0625 177.40625 201.191406 177.941406 200.652344 C 178.476562 200.097656 179.351562 200.097656 179.886719 200.632812 C 180.425781 201.171875 180.445312 202.042969 179.90625 202.582031 Z M 179.90625 202.582031 " fill-opacity="1" fill-rule="nonzero"/></g><g clip-path="url(#4bf58d468f)"><path fill="#74cc00" d="M 105.121094 128.347656 C 104.921875 128.210938 104.664062 128.347656 104.683594 128.585938 C 105.058594 132.398438 108.355469 153.667969 135.683594 180.160156 C 135.78125 180.257812 135.941406 180.257812 136.058594 180.179688 C 137.171875 179.207031 142.929688 174.5 147.339844 176.785156 C 147.4375 176.84375 147.578125 176.824219 147.65625 176.746094 L 152.742188 171.660156 C 152.839844 171.5625 152.839844 171.382812 152.742188 171.28125 C 150.378906 168.839844 126.089844 144.015625 105.121094 128.347656 Z M 136.457031 175.792969 L 135.5625 176.683594 C 118.542969 159.664062 111.59375 145.1875 108.773438 136.035156 L 109.984375 135.65625 C 112.765625 144.671875 119.617188 158.949219 136.457031 175.792969 Z M 136.457031 175.792969 " fill-opacity="1" fill-rule="nonzero"/></g><g clip-path="url(#4f9f20c02b)"><path fill="#74cc00" d="M 155.917969 171.28125 C 155.820312 171.382812 155.820312 171.5625 155.917969 171.660156 L 161.003906 176.746094 C 161.082031 176.824219 161.222656 176.84375 161.320312 176.785156 C 165.730469 174.5 171.488281 179.207031 172.601562 180.179688 C 172.699219 180.277344 172.878906 180.257812 172.976562 180.160156 C 200.304688 153.667969 203.597656 132.417969 203.976562 128.585938 C 203.996094 128.347656 203.738281 128.191406 203.539062 128.328125 C 182.570312 144.015625 158.28125 168.839844 155.917969 171.28125 Z M 198.675781 135.65625 L 199.886719 136.035156 C 197.066406 145.1875 190.117188 159.664062 173.097656 176.683594 L 172.203125 175.792969 C 189.042969 158.949219 195.894531 144.671875 198.675781 135.65625 Z M 198.675781 135.65625 " fill-opacity="1" fill-rule="nonzero"/></g><g clip-path="url(#f8cec781a2)"><path fill="#74cc00" d="M 151.371094 185.503906 L 151.332031 185.441406 C 150.320312 183.894531 149.128906 182.285156 147.71875 180.515625 C 147.5 180.238281 147.339844 179.941406 147.242188 179.644531 C 139.21875 187.449219 128.652344 197.894531 128.652344 197.894531 C 128.652344 197.894531 122.199219 203.253906 126.25 207.523438 C 127.757812 209.113281 129.863281 209.609375 131.988281 209.472656 C 133.675781 209.351562 136.617188 208.976562 138.007812 207.882812 C 138.703125 207.328125 138.421875 205.679688 138.542969 204.863281 C 138.722656 203.652344 139.117188 202.460938 139.832031 201.449219 C 141.34375 199.304688 143.585938 197.695312 145.53125 195.988281 C 148.53125 193.347656 151.273438 190.207031 153.179688 187.886719 C 152.105469 186.515625 151.449219 185.601562 151.371094 185.503906 Z M 130.699219 202.621094 C 130.140625 203.15625 129.269531 203.136719 128.753906 202.601562 C 128.214844 202.0625 128.234375 201.171875 128.773438 200.652344 C 129.328125 200.117188 130.203125 200.136719 130.71875 200.675781 C 131.253906 201.210938 131.253906 202.085938 130.699219 202.621094 Z M 142.316406 191.320312 C 141.757812 191.855469 140.886719 191.835938 140.371094 191.300781 C 139.832031 190.746094 139.851562 189.890625 140.390625 189.355469 C 140.945312 188.820312 141.820312 188.839844 142.335938 189.375 C 142.871094 189.910156 142.871094 190.785156 142.316406 191.320312 Z M 142.316406 191.320312 " fill-opacity="1" fill-rule="nonzero"/></g><g clip-path="url(#ebe6aa9a29)"><path fill="#457a00" d="M 152.996094 0 C 69.171875 0 1.078125 68.09375 1.078125 151.921875 C 1.078125 235.746094 69.171875 303.839844 152.996094 303.839844 C 236.820312 303.839844 304.917969 235.746094 304.917969 151.921875 C 304.917969 68.09375 236.820312 0 152.996094 0 Z M 152.996094 12.660156 C 229.980469 12.660156 292.257812 74.9375 292.257812 151.921875 C 292.257812 228.902344 229.980469 291.179688 152.996094 291.179688 C 76.015625 291.179688 13.738281 228.902344 13.738281 151.921875 C 13.738281 74.9375 76.015625 12.660156 152.996094 12.660156 Z M 152.996094 12.660156 " fill-opacity="1" fill-rule="nonzero"/></g><g fill="#74cc00" fill-opacity="1"><g transform="translate(64.009539, 216.75803)"><g><path d="M 3.375 1.0625 L 18.796875 -6.46875 C 18.910156 -6.539062 19.035156 -6.617188 19.171875 -6.703125 C 19.304688 -6.796875 19.441406 -6.898438 19.578125 -7.015625 C 19.796875 -7.210938 20.050781 -7.382812 20.34375 -7.53125 C 20.5 -7.601562 20.648438 -7.648438 20.796875 -7.671875 C 20.941406 -7.691406 21.09375 -7.65625 21.25 -7.5625 C 21.394531 -7.488281 21.539062 -7.363281 21.6875 -7.1875 C 21.84375 -7.007812 22 -6.765625 22.15625 -6.453125 L 27.65625 4.8125 C 27.769531 5.050781 27.863281 5.328125 27.9375 5.640625 C 28.019531 5.960938 28.03125 6.296875 27.96875 6.640625 C 27.90625 6.972656 27.773438 7.289062 27.578125 7.59375 C 27.378906 7.894531 27.066406 8.148438 26.640625 8.359375 C 26.335938 8.523438 26.003906 8.628906 25.640625 8.671875 C 25.273438 8.722656 24.925781 8.703125 24.59375 8.609375 C 24.257812 8.523438 23.941406 8.359375 23.640625 8.109375 C 23.347656 7.867188 23.101562 7.546875 22.90625 7.140625 L 19.171875 -0.5 L 15.515625 1.28125 L 18.125 6.625 C 18.289062 6.96875 18.390625 7.316406 18.421875 7.671875 C 18.460938 8.035156 18.4375 8.378906 18.34375 8.703125 C 18.25 9.003906 18.082031 9.296875 17.84375 9.578125 C 17.613281 9.867188 17.320312 10.097656 16.96875 10.265625 C 16.601562 10.441406 16.238281 10.535156 15.875 10.546875 C 15.507812 10.566406 15.160156 10.523438 14.828125 10.421875 C 14.503906 10.304688 14.203125 10.125 13.921875 9.875 C 13.640625 9.632812 13.414062 9.34375 13.25 9 L 10.640625 3.65625 L 5.796875 6.03125 C 5.078125 6.382812 4.367188 6.441406 3.671875 6.203125 C 3.328125 6.097656 3.015625 5.925781 2.734375 5.6875 C 2.453125 5.445312 2.222656 5.144531 2.046875 4.78125 C 1.878906 4.425781 1.785156 4.066406 1.765625 3.703125 C 1.753906 3.335938 1.804688 2.984375 1.921875 2.640625 C 2.171875 1.941406 2.65625 1.414062 3.375 1.0625 Z M 3.375 1.0625 "/></g></g></g><g fill="#74cc00" fill-opacity="1"><g transform="translate(74.285873, 236.671549)"><g><path d="M 21.4375 0.09375 C 21.550781 0.601562 21.550781 1.101562 21.4375 1.59375 C 21.320312 2.082031 21.035156 2.507812 20.578125 2.875 C 20.273438 3.113281 19.9375 3.265625 19.5625 3.328125 C 19.1875 3.398438 18.828125 3.398438 18.484375 3.328125 C 17.828125 3.171875 17.226562 2.742188 16.6875 2.046875 C 16.5625 1.867188 16.4375 1.6875 16.3125 1.5 C 16.195312 1.320312 16.078125 1.132812 15.953125 0.9375 C 15.734375 0.550781 15.4375 0.222656 15.0625 -0.046875 C 14.550781 -0.359375 13.984375 -0.457031 13.359375 -0.34375 C 12.742188 -0.238281 12.128906 0.0078125 11.515625 0.40625 L 6.59375 4.296875 C 6.289062 4.535156 5.960938 4.703125 5.609375 4.796875 C 5.253906 4.890625 4.898438 4.914062 4.546875 4.875 C 3.796875 4.789062 3.179688 4.445312 2.703125 3.84375 C 2.203125 3.21875 2 2.53125 2.09375 1.78125 C 2.144531 1.4375 2.257812 1.101562 2.4375 0.78125 C 2.613281 0.457031 2.851562 0.175781 3.15625 -0.0625 L 13.640625 -8.34375 C 14.429688 -8.96875 15.144531 -8.878906 15.78125 -8.078125 C 16.113281 -7.660156 16.265625 -7.210938 16.234375 -6.734375 C 16.210938 -6.265625 15.992188 -5.710938 15.578125 -5.078125 L 15.484375 -4.953125 C 15.816406 -4.898438 16.160156 -4.820312 16.515625 -4.71875 C 16.867188 -4.625 17.222656 -4.5 17.578125 -4.34375 C 18.003906 -4.15625 18.421875 -3.925781 18.828125 -3.65625 C 19.234375 -3.382812 19.613281 -3.070312 19.96875 -2.71875 C 20.269531 -2.34375 20.5625 -1.910156 20.84375 -1.421875 C 21.125 -0.929688 21.320312 -0.425781 21.4375 0.09375 Z M 21.4375 0.09375 "/></g></g></g><g fill="#74cc00" fill-opacity="1"><g transform="translate(85.654197, 250.969523)"><g><path d="M 7.5 6.5 C 6.5625 5.738281 5.828125 4.835938 5.296875 3.796875 C 4.765625 2.753906 4.4375 1.675781 4.3125 0.5625 C 4.207031 -0.582031 4.3125 -1.710938 4.625 -2.828125 C 4.945312 -3.953125 5.488281 -4.984375 6.25 -5.921875 C 7.050781 -6.890625 7.976562 -7.632812 9.03125 -8.15625 C 10.082031 -8.6875 11.171875 -9.003906 12.296875 -9.109375 C 13.410156 -9.210938 14.53125 -9.09375 15.65625 -8.75 C 16.789062 -8.414062 17.828125 -7.863281 18.765625 -7.09375 C 19.703125 -6.320312 20.445312 -5.429688 21 -4.421875 C 21.550781 -3.421875 21.894531 -2.382812 22.03125 -1.3125 C 22.175781 -0.21875 22.097656 0.875 21.796875 1.96875 C 21.492188 3.0625 20.957031 4.078125 20.1875 5.015625 C 19.945312 5.304688 19.707031 5.507812 19.46875 5.625 C 19.226562 5.738281 18.984375 5.785156 18.734375 5.765625 C 18.472656 5.742188 18.203125 5.65625 17.921875 5.5 C 17.648438 5.34375 17.363281 5.140625 17.0625 4.890625 L 9.71875 -1.15625 C 9.507812 -0.863281 9.375 -0.53125 9.3125 -0.15625 C 9.25 0.21875 9.242188 0.597656 9.296875 0.984375 C 9.347656 1.367188 9.460938 1.738281 9.640625 2.09375 C 9.816406 2.457031 10.066406 2.769531 10.390625 3.03125 C 10.710938 3.300781 11.0625 3.503906 11.4375 3.640625 C 11.8125 3.773438 12.203125 3.851562 12.609375 3.875 C 12.953125 3.957031 13.300781 4.128906 13.65625 4.390625 C 14.007812 4.660156 14.285156 4.988281 14.484375 5.375 C 14.710938 5.75 14.828125 6.15625 14.828125 6.59375 C 14.835938 7.03125 14.675781 7.453125 14.34375 7.859375 C 13.988281 8.316406 13.53125 8.582031 12.96875 8.65625 C 12.414062 8.738281 11.828125 8.691406 11.203125 8.515625 C 10.566406 8.328125 9.921875 8.050781 9.265625 7.6875 C 8.617188 7.332031 8.03125 6.9375 7.5 6.5 Z M 15.9375 -3.65625 C 15.3125 -4.164062 14.601562 -4.425781 13.8125 -4.4375 C 13.425781 -4.445312 13.050781 -4.390625 12.6875 -4.265625 C 12.320312 -4.148438 12 -3.96875 11.71875 -3.71875 L 16.71875 0.390625 C 16.9375 0.078125 17.066406 -0.265625 17.109375 -0.640625 C 17.160156 -1.015625 17.148438 -1.382812 17.078125 -1.75 C 17.003906 -2.125 16.863281 -2.476562 16.65625 -2.8125 C 16.457031 -3.144531 16.21875 -3.425781 15.9375 -3.65625 Z M 15.9375 -3.65625 "/></g></g></g><g fill="#74cc00" fill-opacity="1"><g transform="translate(103.221482, 264.895275)"><g><path d="M 7.859375 4.203125 C 7.390625 3.960938 6.914062 3.671875 6.4375 3.328125 C 5.957031 2.984375 5.507812 2.601562 5.09375 2.1875 C 4.664062 1.75 4.285156 1.289062 3.953125 0.8125 C 3.617188 0.34375 3.347656 -0.144531 3.140625 -0.65625 C 2.929688 -1.15625 2.8125 -1.65625 2.78125 -2.15625 C 2.757812 -2.664062 2.84375 -3.160156 3.03125 -3.640625 C 3.164062 -3.929688 3.351562 -4.179688 3.59375 -4.390625 C 3.84375 -4.609375 4.113281 -4.765625 4.40625 -4.859375 C 4.695312 -4.953125 5 -4.976562 5.3125 -4.9375 C 5.625 -4.90625 5.914062 -4.800781 6.1875 -4.625 C 6.488281 -4.4375 6.757812 -4.160156 7 -3.796875 C 7.25 -3.441406 7.488281 -3.054688 7.71875 -2.640625 C 7.96875 -2.210938 8.234375 -1.78125 8.515625 -1.34375 C 8.796875 -0.914062 9.140625 -0.53125 9.546875 -0.1875 C 9.785156 -0.0078125 10.050781 0.160156 10.34375 0.328125 C 10.644531 0.503906 10.929688 0.628906 11.203125 0.703125 C 11.484375 0.773438 11.734375 0.785156 11.953125 0.734375 C 12.179688 0.679688 12.367188 0.515625 12.515625 0.234375 C 12.617188 0.015625 12.585938 -0.242188 12.421875 -0.546875 C 12.253906 -0.847656 12 -1.191406 11.65625 -1.578125 C 11.320312 -1.960938 10.929688 -2.367188 10.484375 -2.796875 C 10.046875 -3.234375 9.613281 -3.695312 9.1875 -4.1875 C 8.757812 -4.6875 8.367188 -5.203125 8.015625 -5.734375 C 7.660156 -6.265625 7.398438 -6.804688 7.234375 -7.359375 C 7.066406 -7.910156 7.023438 -8.46875 7.109375 -9.03125 C 7.171875 -9.601562 7.398438 -10.128906 7.796875 -10.609375 C 8.191406 -11.097656 8.640625 -11.515625 9.140625 -11.859375 C 9.648438 -12.179688 10.238281 -12.410156 10.90625 -12.546875 C 11.582031 -12.691406 12.335938 -12.707031 13.171875 -12.59375 C 14.015625 -12.476562 14.925781 -12.179688 15.90625 -11.703125 C 16.707031 -11.296875 17.441406 -10.832031 18.109375 -10.3125 C 18.785156 -9.800781 19.335938 -9.257812 19.765625 -8.6875 C 20.222656 -8.082031 20.53125 -7.46875 20.6875 -6.84375 C 20.84375 -6.226562 20.816406 -5.613281 20.609375 -5 C 20.460938 -4.601562 20.25 -4.300781 19.96875 -4.09375 C 19.695312 -3.882812 19.40625 -3.742188 19.09375 -3.671875 C 18.78125 -3.609375 18.46875 -3.613281 18.15625 -3.6875 C 17.84375 -3.757812 17.5625 -3.867188 17.3125 -4.015625 C 17.101562 -4.191406 16.898438 -4.398438 16.703125 -4.640625 C 16.515625 -4.878906 16.332031 -5.132812 16.15625 -5.40625 C 15.976562 -5.6875 15.785156 -5.96875 15.578125 -6.25 C 15.378906 -6.53125 15.15625 -6.78125 14.90625 -7 C 14.363281 -7.457031 13.859375 -7.722656 13.390625 -7.796875 C 13.160156 -7.835938 12.945312 -7.816406 12.75 -7.734375 C 12.550781 -7.660156 12.394531 -7.519531 12.28125 -7.3125 C 12.175781 -7.082031 12.316406 -6.722656 12.703125 -6.234375 C 13.066406 -5.734375 13.609375 -5.144531 14.328125 -4.46875 L 15.234375 -3.546875 C 15.566406 -3.210938 15.890625 -2.859375 16.203125 -2.484375 C 16.515625 -2.109375 16.800781 -1.707031 17.0625 -1.28125 C 17.3125 -0.84375 17.5 -0.382812 17.625 0.09375 C 17.757812 0.582031 17.800781 1.082031 17.75 1.59375 C 17.695312 2.113281 17.53125 2.664062 17.25 3.25 C 16.84375 4.0625 16.296875 4.648438 15.609375 5.015625 C 14.921875 5.378906 14.15625 5.578125 13.3125 5.609375 C 12.457031 5.640625 11.5625 5.523438 10.625 5.265625 C 9.6875 5.003906 8.765625 4.648438 7.859375 4.203125 Z M 7.859375 4.203125 "/></g></g></g><g fill="#74cc00" fill-opacity="1"><g transform="translate(121.764444, 273.991013)"><g><path d="M 20.375 -10.59375 C 20.863281 -9.664062 21.164062 -8.632812 21.28125 -7.5 C 21.394531 -6.375 21.316406 -5.21875 21.046875 -4.03125 L 19.90625 0.890625 L 19.671875 1.921875 C 19.585938 2.285156 19.441406 2.617188 19.234375 2.921875 C 19.023438 3.222656 18.769531 3.460938 18.46875 3.640625 C 18.164062 3.835938 17.828125 3.972656 17.453125 4.046875 C 17.085938 4.117188 16.71875 4.113281 16.34375 4.03125 C 15.894531 3.925781 15.523438 3.742188 15.234375 3.484375 C 14.941406 3.234375 14.710938 2.941406 14.546875 2.609375 C 14.398438 2.285156 14.304688 1.921875 14.265625 1.515625 C 14.234375 1.117188 14.265625 0.71875 14.359375 0.3125 L 14.859375 -1.921875 L 15.640625 -5.28125 C 15.742188 -5.726562 15.757812 -6.171875 15.6875 -6.609375 C 15.625 -7.054688 15.5 -7.453125 15.3125 -7.796875 C 15.101562 -8.171875 14.828125 -8.488281 14.484375 -8.75 C 14.140625 -9.007812 13.742188 -9.191406 13.296875 -9.296875 C 12.835938 -9.398438 12.382812 -9.394531 11.9375 -9.28125 C 11.488281 -9.175781 11.078125 -8.992188 10.703125 -8.734375 C 10.316406 -8.460938 9.988281 -8.132812 9.71875 -7.75 C 9.445312 -7.363281 9.257812 -6.953125 9.15625 -6.515625 L 7.84375 -0.78125 C 7.757812 -0.40625 7.609375 -0.0703125 7.390625 0.21875 C 7.171875 0.519531 6.910156 0.765625 6.609375 0.953125 C 5.960938 1.367188 5.257812 1.488281 4.5 1.3125 C 3.71875 1.132812 3.140625 0.722656 2.765625 0.078125 C 2.578125 -0.222656 2.453125 -0.554688 2.390625 -0.921875 C 2.328125 -1.285156 2.335938 -1.65625 2.421875 -2.03125 L 6.359375 -19.203125 C 6.453125 -19.578125 6.601562 -19.910156 6.8125 -20.203125 C 7.03125 -20.503906 7.285156 -20.75 7.578125 -20.9375 C 7.878906 -21.125 8.210938 -21.25 8.578125 -21.3125 C 8.941406 -21.382812 9.3125 -21.378906 9.6875 -21.296875 C 10.0625 -21.210938 10.394531 -21.054688 10.6875 -20.828125 C 10.988281 -20.609375 11.234375 -20.351562 11.421875 -20.0625 C 11.617188 -19.757812 11.75 -19.425781 11.8125 -19.0625 C 11.882812 -18.695312 11.875 -18.328125 11.78125 -17.953125 L 10.6875 -13.1875 C 11.113281 -13.613281 11.675781 -13.945312 12.375 -14.1875 C 12.84375 -14.332031 13.328125 -14.429688 13.828125 -14.484375 C 14.335938 -14.546875 14.847656 -14.519531 15.359375 -14.40625 C 16.523438 -14.132812 17.523438 -13.664062 18.359375 -13 C 19.203125 -12.332031 19.875 -11.53125 20.375 -10.59375 Z M 20.375 -10.59375 "/></g></g></g><g fill="#74cc00" fill-opacity="1"><g transform="translate(144.944147, 278.501743)"><g/></g></g><g fill="#74cc00" fill-opacity="1"><g transform="translate(155.47093, 279.514093)"><g><path d="M 20.03125 -13.21875 C 20.25 -13.0625 20.429688 -12.828125 20.578125 -12.515625 C 20.734375 -12.203125 20.84375 -11.8125 20.90625 -11.34375 L 21.828125 -5.1875 C 21.910156 -4.570312 21.78125 -4.03125 21.4375 -3.5625 C 21.101562 -3.101562 20.609375 -2.828125 19.953125 -2.734375 C 19.265625 -2.628906 18.710938 -2.765625 18.296875 -3.140625 C 17.890625 -3.523438 17.632812 -4.070312 17.53125 -4.78125 L 17.46875 -5.125 C 17.34375 -4.914062 17.203125 -4.707031 17.046875 -4.5 C 16.890625 -4.289062 16.726562 -4.085938 16.5625 -3.890625 C 16.070312 -3.328125 15.484375 -2.832031 14.796875 -2.40625 C 14.109375 -1.976562 13.3125 -1.695312 12.40625 -1.5625 C 11.351562 -1.40625 10.328125 -1.390625 9.328125 -1.515625 C 8.328125 -1.648438 7.375 -1.90625 6.46875 -2.28125 C 5.550781 -2.644531 4.695312 -3.125 3.90625 -3.71875 C 3.125 -4.3125 2.425781 -4.992188 1.8125 -5.765625 C 1.195312 -6.535156 0.679688 -7.378906 0.265625 -8.296875 C -0.140625 -9.222656 -0.421875 -10.210938 -0.578125 -11.265625 C -0.816406 -12.835938 -0.734375 -14.359375 -0.328125 -15.828125 C 0.0664062 -17.296875 0.707031 -18.625 1.59375 -19.8125 C 2.476562 -21.007812 3.5625 -22 4.84375 -22.78125 C 6.125 -23.570312 7.550781 -24.082031 9.125 -24.3125 C 10.019531 -24.445312 10.859375 -24.492188 11.640625 -24.453125 C 12.429688 -24.410156 13.179688 -24.28125 13.890625 -24.0625 C 14.597656 -23.832031 15.28125 -23.53125 15.9375 -23.15625 C 16.59375 -22.78125 17.25 -22.328125 17.90625 -21.796875 C 18.1875 -21.523438 18.421875 -21.242188 18.609375 -20.953125 C 18.804688 -20.660156 18.929688 -20.328125 18.984375 -19.953125 C 19.054688 -19.429688 18.988281 -18.941406 18.78125 -18.484375 C 18.570312 -18.035156 18.257812 -17.671875 17.84375 -17.390625 C 17.5 -17.140625 17.101562 -16.96875 16.65625 -16.875 C 16.21875 -16.78125 15.773438 -16.828125 15.328125 -17.015625 C 15.085938 -17.128906 14.851562 -17.242188 14.625 -17.359375 C 14.40625 -17.484375 14.207031 -17.609375 14.03125 -17.734375 C 13.625 -17.984375 13.222656 -18.207031 12.828125 -18.40625 C 12.429688 -18.613281 12.003906 -18.769531 11.546875 -18.875 C 11.066406 -18.976562 10.523438 -18.984375 9.921875 -18.890625 C 9.109375 -18.765625 8.367188 -18.492188 7.703125 -18.078125 C 7.035156 -17.660156 6.476562 -17.132812 6.03125 -16.5 C 5.582031 -15.882812 5.253906 -15.179688 5.046875 -14.390625 C 4.847656 -13.609375 4.804688 -12.816406 4.921875 -12.015625 C 5.054688 -11.140625 5.332031 -10.359375 5.75 -9.671875 C 6.175781 -8.984375 6.691406 -8.410156 7.296875 -7.953125 C 7.921875 -7.492188 8.613281 -7.164062 9.375 -6.96875 C 10.144531 -6.78125 10.953125 -6.75 11.796875 -6.875 C 12.523438 -6.976562 13.226562 -7.332031 13.90625 -7.9375 C 14.125 -8.132812 14.316406 -8.34375 14.484375 -8.5625 L 13.59375 -8.4375 C 13.25 -8.382812 12.929688 -8.398438 12.640625 -8.484375 C 12.359375 -8.566406 12.097656 -8.695312 11.859375 -8.875 C 11.367188 -9.238281 11.085938 -9.675781 11.015625 -10.1875 C 10.972656 -10.445312 10.988281 -10.710938 11.0625 -10.984375 C 11.132812 -11.265625 11.273438 -11.53125 11.484375 -11.78125 C 11.648438 -12.03125 11.878906 -12.242188 12.171875 -12.421875 C 12.460938 -12.597656 12.800781 -12.71875 13.1875 -12.78125 L 18.4375 -13.5625 C 18.75 -13.601562 19.035156 -13.597656 19.296875 -13.546875 C 19.566406 -13.503906 19.8125 -13.394531 20.03125 -13.21875 Z M 20.03125 -13.21875 "/></g></g></g><g fill="#74cc00" fill-opacity="1"><g transform="translate(181.852799, 275.049446)"><g><path d="M 10.484375 -22.78125 C 10.816406 -22.65625 11.113281 -22.46875 11.375 -22.21875 C 11.644531 -21.976562 11.859375 -21.675781 12.015625 -21.3125 L 17.4375 -9.078125 C 17.84375 -8.148438 17.578125 -7.476562 16.640625 -7.0625 C 16.148438 -6.851562 15.675781 -6.820312 15.21875 -6.96875 C 14.757812 -7.113281 14.28125 -7.457031 13.78125 -8 L 13.640625 -8.1875 C 13.367188 -7.664062 13.066406 -7.1875 12.734375 -6.75 C 12.410156 -6.3125 12.070312 -5.914062 11.71875 -5.5625 C 11.289062 -5.132812 10.847656 -4.765625 10.390625 -4.453125 C 9.941406 -4.148438 9.507812 -3.910156 9.09375 -3.734375 C 7.988281 -3.242188 6.890625 -3.019531 5.796875 -3.0625 C 4.710938 -3.101562 3.703125 -3.34375 2.765625 -3.78125 C 1.804688 -4.25 0.941406 -4.890625 0.171875 -5.703125 C -0.597656 -6.523438 -1.226562 -7.492188 -1.71875 -8.609375 L -4.171875 -14.15625 C -4.328125 -14.5 -4.40625 -14.847656 -4.40625 -15.203125 C -4.40625 -15.566406 -4.347656 -15.914062 -4.234375 -16.25 C -4.109375 -16.582031 -3.921875 -16.882812 -3.671875 -17.15625 C -3.421875 -17.425781 -3.125 -17.640625 -2.78125 -17.796875 C -2.414062 -17.953125 -2.050781 -18.03125 -1.6875 -18.03125 C -1.320312 -18.03125 -0.96875 -17.96875 -0.625 -17.84375 C -0.300781 -17.71875 -0.00390625 -17.535156 0.265625 -17.296875 C 0.535156 -17.054688 0.75 -16.757812 0.90625 -16.40625 L 3.359375 -10.859375 C 3.546875 -10.429688 3.796875 -10.0625 4.109375 -9.75 C 4.421875 -9.4375 4.773438 -9.191406 5.171875 -9.015625 C 5.546875 -8.835938 5.945312 -8.742188 6.375 -8.734375 C 6.800781 -8.722656 7.222656 -8.8125 7.640625 -9 C 8.054688 -9.1875 8.414062 -9.445312 8.71875 -9.78125 C 9.019531 -10.125 9.253906 -10.507812 9.421875 -10.9375 C 9.585938 -11.351562 9.664062 -11.785156 9.65625 -12.234375 C 9.65625 -12.691406 9.5625 -13.128906 9.375 -13.546875 L 6.9375 -19.0625 C 6.78125 -19.425781 6.703125 -19.789062 6.703125 -20.15625 C 6.703125 -20.519531 6.765625 -20.863281 6.890625 -21.1875 C 7.003906 -21.519531 7.191406 -21.816406 7.453125 -22.078125 C 7.710938 -22.347656 8.015625 -22.5625 8.359375 -22.71875 C 8.722656 -22.875 9.082031 -22.957031 9.4375 -22.96875 C 9.800781 -22.976562 10.148438 -22.914062 10.484375 -22.78125 Z M 10.484375 -22.78125 "/></g></g></g><g fill="#74cc00" fill-opacity="1"><g transform="translate(203.932938, 264.845465)"><g><path d="M 2.734375 -24.375 C 3.535156 -25.007812 4.25 -24.929688 4.875 -24.140625 L 9.59375 -18.203125 L 13.90625 -12.75 C 14.582031 -11.894531 14.503906 -11.132812 13.671875 -10.46875 C 13.253906 -10.144531 12.8125 -9.992188 12.34375 -10.015625 C 11.875 -10.046875 11.394531 -10.191406 10.90625 -10.453125 L 10.671875 -10.609375 C 10.585938 -9.742188 10.320312 -8.914062 9.875 -8.125 C 9.4375 -7.34375 8.804688 -6.625 7.984375 -5.96875 C 7.046875 -5.226562 6.007812 -4.707031 4.875 -4.40625 C 3.738281 -4.101562 2.609375 -4.007812 1.484375 -4.125 C 0.359375 -4.269531 -0.71875 -4.613281 -1.75 -5.15625 C -2.78125 -5.707031 -3.671875 -6.457031 -4.421875 -7.40625 C -5.171875 -8.351562 -5.695312 -9.390625 -6 -10.515625 C -6.300781 -11.648438 -6.390625 -12.773438 -6.265625 -13.890625 C -6.128906 -15.035156 -5.78125 -16.125 -5.21875 -17.15625 C -4.664062 -18.1875 -3.921875 -19.070312 -2.984375 -19.8125 C -2.148438 -20.476562 -1.285156 -20.929688 -0.390625 -21.171875 C 0.492188 -21.421875 1.375 -21.484375 2.25 -21.359375 L 2.234375 -21.40625 C 1.734375 -22.726562 1.898438 -23.71875 2.734375 -24.375 Z M 5.828125 -12.453125 C 5.859375 -12.878906 5.8125 -13.304688 5.6875 -13.734375 C 5.5625 -14.160156 5.351562 -14.554688 5.0625 -14.921875 C 4.769531 -15.285156 4.429688 -15.578125 4.046875 -15.796875 C 3.660156 -16.023438 3.253906 -16.171875 2.828125 -16.234375 C 2.398438 -16.285156 1.972656 -16.257812 1.546875 -16.15625 C 1.128906 -16.050781 0.738281 -15.851562 0.375 -15.5625 C 0.0195312 -15.28125 -0.253906 -14.945312 -0.453125 -14.5625 C -0.648438 -14.175781 -0.769531 -13.769531 -0.8125 -13.34375 C -0.851562 -12.914062 -0.804688 -12.488281 -0.671875 -12.0625 C -0.546875 -11.632812 -0.335938 -11.238281 -0.046875 -10.875 C 0.242188 -10.507812 0.578125 -10.210938 0.953125 -9.984375 C 1.335938 -9.765625 1.75 -9.625 2.1875 -9.5625 C 2.613281 -9.5 3.035156 -9.519531 3.453125 -9.625 C 3.878906 -9.726562 4.269531 -9.921875 4.625 -10.203125 C 4.988281 -10.492188 5.269531 -10.832031 5.46875 -11.21875 C 5.664062 -11.601562 5.785156 -12.015625 5.828125 -12.453125 Z M 5.828125 -12.453125 "/></g></g></g><g fill="#74cc00" fill-opacity="1"><g transform="translate(221.98228, 249.829798)"><g><path d="M -4.609375 -20.921875 C -4.140625 -21.148438 -3.648438 -21.257812 -3.140625 -21.25 C -2.640625 -21.25 -2.160156 -21.066406 -1.703125 -20.703125 C -1.410156 -20.460938 -1.1875 -20.164062 -1.03125 -19.8125 C -0.882812 -19.46875 -0.8125 -19.117188 -0.8125 -18.765625 C -0.820312 -18.097656 -1.109375 -17.421875 -1.671875 -16.734375 C -1.796875 -16.566406 -1.9375 -16.40625 -2.09375 -16.25 C -2.257812 -16.09375 -2.425781 -15.9375 -2.59375 -15.78125 C -2.914062 -15.476562 -3.160156 -15.109375 -3.328125 -14.671875 C -3.535156 -14.109375 -3.519531 -13.535156 -3.28125 -12.953125 C -3.039062 -12.378906 -2.65625 -11.84375 -2.125 -11.34375 L 2.75 -7.390625 C 3.050781 -7.148438 3.285156 -6.863281 3.453125 -6.53125 C 3.617188 -6.207031 3.722656 -5.867188 3.765625 -5.515625 C 3.835938 -4.753906 3.632812 -4.070312 3.15625 -3.46875 C 2.644531 -2.84375 2.019531 -2.5 1.28125 -2.4375 C 0.925781 -2.414062 0.570312 -2.453125 0.21875 -2.546875 C -0.125 -2.648438 -0.445312 -2.820312 -0.75 -3.0625 L -11.140625 -11.46875 C -11.921875 -12.101562 -11.988281 -12.820312 -11.34375 -13.625 C -11.007812 -14.03125 -10.609375 -14.269531 -10.140625 -14.34375 C -9.679688 -14.425781 -9.097656 -14.335938 -8.390625 -14.078125 L -8.234375 -14.03125 C -8.253906 -14.363281 -8.253906 -14.710938 -8.234375 -15.078125 C -8.222656 -15.441406 -8.179688 -15.8125 -8.109375 -16.1875 C -8.015625 -16.644531 -7.878906 -17.101562 -7.703125 -17.5625 C -7.535156 -18.019531 -7.3125 -18.457031 -7.03125 -18.875 C -6.738281 -19.257812 -6.378906 -19.644531 -5.953125 -20.03125 C -5.535156 -20.414062 -5.085938 -20.710938 -4.609375 -20.921875 Z M -4.609375 -20.921875 "/></g></g></g><g fill="#74cc00" fill-opacity="1"><g transform="translate(233.511868, 235.579658)"><g><path d="M -11.921875 -25.9375 C -11.578125 -26.050781 -11.222656 -26.097656 -10.859375 -26.078125 C -10.492188 -26.054688 -10.132812 -25.957031 -9.78125 -25.78125 L 7.21875 -17.34375 C 8.125 -16.894531 8.351562 -16.21875 7.90625 -15.3125 C 7.4375 -14.363281 6.503906 -13.992188 5.109375 -14.203125 L 4.6875 -14.234375 C 5.0625 -13.335938 5.238281 -12.378906 5.21875 -11.359375 C 5.195312 -10.335938 4.929688 -9.3125 4.421875 -8.28125 C 3.878906 -7.1875 3.171875 -6.285156 2.296875 -5.578125 C 1.421875 -4.878906 0.46875 -4.378906 -0.5625 -4.078125 C -1.613281 -3.773438 -2.707031 -3.675781 -3.84375 -3.78125 C -4.976562 -3.894531 -6.085938 -4.222656 -7.171875 -4.765625 C -8.265625 -5.304688 -9.203125 -5.992188 -9.984375 -6.828125 C -10.765625 -7.671875 -11.347656 -8.597656 -11.734375 -9.609375 C -12.128906 -10.628906 -12.304688 -11.695312 -12.265625 -12.8125 C -12.234375 -13.925781 -11.945312 -15.03125 -11.40625 -16.125 C -11.113281 -16.707031 -10.71875 -17.238281 -10.21875 -17.71875 C -9.726562 -18.195312 -9.15625 -18.601562 -8.5 -18.9375 L -12.25 -20.796875 C -12.601562 -20.972656 -12.894531 -21.203125 -13.125 -21.484375 C -13.363281 -21.765625 -13.539062 -22.082031 -13.65625 -22.4375 C -13.769531 -22.769531 -13.816406 -23.113281 -13.796875 -23.46875 C -13.773438 -23.832031 -13.679688 -24.1875 -13.515625 -24.53125 C -13.335938 -24.882812 -13.109375 -25.179688 -12.828125 -25.421875 C -12.554688 -25.671875 -12.253906 -25.84375 -11.921875 -25.9375 Z M -0.1875 -11.171875 C 0.0195312 -11.578125 0.128906 -12 0.140625 -12.4375 C 0.160156 -12.875 0.09375 -13.296875 -0.0625 -13.703125 C -0.207031 -14.097656 -0.429688 -14.460938 -0.734375 -14.796875 C -1.035156 -15.128906 -1.390625 -15.398438 -1.796875 -15.609375 C -2.210938 -15.816406 -2.644531 -15.9375 -3.09375 -15.96875 C -3.539062 -16.007812 -3.972656 -15.96875 -4.390625 -15.84375 C -4.785156 -15.71875 -5.148438 -15.515625 -5.484375 -15.234375 C -5.828125 -14.953125 -6.101562 -14.609375 -6.3125 -14.203125 C -6.507812 -13.785156 -6.613281 -13.359375 -6.625 -12.921875 C -6.644531 -12.492188 -6.585938 -12.078125 -6.453125 -11.671875 C -6.304688 -11.273438 -6.082031 -10.910156 -5.78125 -10.578125 C -5.476562 -10.242188 -5.117188 -9.972656 -4.703125 -9.765625 C -4.296875 -9.554688 -3.867188 -9.429688 -3.421875 -9.390625 C -2.972656 -9.359375 -2.539062 -9.40625 -2.125 -9.53125 C -1.707031 -9.65625 -1.328125 -9.851562 -0.984375 -10.125 C -0.648438 -10.40625 -0.382812 -10.753906 -0.1875 -11.171875 Z M -0.1875 -11.171875 "/></g></g></g></g></g></svg>